<svg fill="none" height="164" viewBox="0 0 275 164" width="275" xmlns="http://www.w3.org/2000/svg"><g fill="#2b363e"><path d="m2.38342 86.754v-7.8795h1.60417v6.5427h3.9875v1.3368z"/><path d="m8.79517 82.8325c0-.8097.12222-1.4896.36284-2.0396.18334-.4048.42778-.7677.74098-1.0885.31321-.3209.65691-.5615 1.02741-.7143.4965-.21 1.0656-.317 1.7111-.317 1.1726 0 2.1084.3629 2.8111 1.0924.7028.7257 1.0542 1.734 1.0542 3.0288 0 1.2833-.3476 2.284-1.0465 3.0097-.6952.7257-1.6271 1.0847-2.7959 1.0847-1.1802 0-2.1197-.359-2.81871-1.0809-.69514-.718-1.04652-1.7111-1.04652-2.9753zm1.65383-.0573c0 .9014.2101 1.5851.6226 2.0472.4163.466.9434.6952 1.585.6952.6379 0 1.165-.2292 1.5736-.6875.4087-.4622.615-1.1535.615-2.074 0-.9128-.1986-1.5889-.5997-2.0396-.3972-.4468-.9281-.6722-1.5889-.6722-.6607 0-1.1955.2292-1.6003.6799-.4049.4545-.6073 1.1382-.6073 2.051z"/><path d="m21.4618 83.8332v-1.3368h3.4566v3.1625c-.3361.3284-.825.6111-1.459.8593-.6378.2483-1.2871.3705-1.9403.3705-.8288 0-1.5545-.1718-2.1732-.5194-.6188-.3514-1.0809-.8479-1.3903-1.4972-.3132-.6493-.466-1.3559-.466-2.116 0-.8288.1719-1.5621.5195-2.2076.3475-.6417.8517-1.1344 1.5201-1.4782.5118-.2635 1.1458-.3972 1.9059-.3972.9854 0 1.757.2101 2.3108.6226s.909.9854 1.0694 1.7149l-1.5927.2979c-.1146-.3895-.3246-.6989-.634-.9243-.3056-.2253-.6913-.3399-1.1535-.3399-.7028 0-1.2604.2254-1.6729.6684-.4163.4431-.6226 1.1038-.6226 1.9785 0 .9434.2101 1.65.6302 2.1198.4202.4736.9664.7066 1.6462.7066.3361 0 .6722-.065 1.0122-.1948.3361-.1337.6264-.2941.8708-.4813v-1.0083z"/><path d="m26.3377 86.7484v-7.9445h1.6041v7.9445zm-.1872-8.399.7486-1.6233h1.7073l-1.4896 1.6233z"/><path d="m29.071 84.1693 1.5622-.1528c.0917.5271.2826.909.5729 1.1573.2865.2445.6722.3667 1.1611.3667.5157 0 .9052-.107 1.1688-.3285.2597-.2177.3934-.4736.3934-.7639 0-.191-.0573-.3514-.1681-.4812-.1107-.1337-.3017-.2483-.5767-.3438-.1872-.0649-.6149-.1795-1.2833-.3476-.8594-.2138-1.4629-.4736-1.8105-.7868-.4889-.4354-.7333-.9701-.7333-1.5965 0-.4048.1146-.783.3476-1.1382.2291-.3514.5576-.6187.9892-.8021.4316-.1871.9549-.2788 1.566-.2788.9969 0 1.7455.2216 2.2496.657.5042.4392.7677 1.0198.7945 1.7493l-1.6042.0725c-.0687-.4086-.2139-.7027-.443-.8822-.2254-.1796-.5615-.2674-1.016-.2674-.466 0-.8288.0955-1.0924.2864-.1719.1223-.2559.2865-.2559.4928 0 .1909.0802.3513.2368.485.2025.1681.6952.3438 1.4743.5309.783.1834 1.3598.3743 1.7341.5691.3743.1986.6645.466.8784.8097.2101.34.317.7639.317 1.2643 0 .4545-.126.8823-.3819 1.2795-.2521.3972-.6111.6913-1.0733.8861-.4621.1948-1.0389.2903-1.7264.2903-1.0045 0-1.776-.233-2.3145-.6952-.5386-.4659-.8594-1.142-.9664-2.0319z"/><path d="m38.645 86.7518v-6.6h-2.3565v-1.3444h6.3135v1.3444h-2.3528v6.6z"/><path d="m45.2107 78.8074h-1.6041v7.9444h1.6041z"/><path d="m51.8225 83.8332 1.5583.4927c-.2406.867-.6379 1.5125-1.1917 1.9326-.5538.4202-1.2566.6302-2.1121.6302-1.0542 0-1.9212-.359-2.6011-1.0809-.676-.718-1.0159-1.7034-1.0159-2.9562 0-1.3215.3399-2.349 1.0236-3.0785.6837-.7333 1.5812-1.1 2.6927-1.1.9701 0 1.7607.2903 2.368.8632.3629.3399.6341.8288.8136 1.4629l-1.5889.3781c-.0917-.4087-.2903-.7372-.5882-.974s-.6608-.359-1.0847-.359c-.5882 0-1.0695.2139-1.4361.634-.3667.424-.55 1.1077-.55 2.0549 0 1.0045.1833 1.7187.5423 2.1465.3629.4278.8327.6379 1.4094.6379.4278 0 .7944-.1337 1.1-.4049.3094-.2712.5271-.699.6608-1.2795z"/><path d="m61.9171 86.7518h-1.7455l-.6951-1.8066h-3.174l-.6569 1.8066h-1.6997l3.0938-7.9444h1.6958zm-2.9524-3.1434-1.0962-2.9486-1.0733 2.9486z"/><path d="m67.1051 86.7518v-7.9444h5.8934v1.3444h-4.2892v1.7608h3.9913v1.3368h-3.9913v2.1656h4.442v1.3368z"/><path d="m74.0875 84.1693 1.5622-.1528c.0955.5271.2826.909.5729 1.1573.2865.2445.6722.3667 1.1611.3667.5156 0 .9052-.107 1.1688-.3285.2597-.2177.3934-.4736.3934-.7639 0-.191-.0573-.3514-.1681-.4812-.1069-.1337-.3017-.2483-.5767-.3438-.1872-.0649-.615-.1795-1.2834-.3476-.8593-.2138-1.4628-.4736-1.8104-.7868-.4889-.4354-.7333-.9701-.7333-1.5965 0-.4048.1184-.783.3476-1.1382.2291-.3514.5576-.6187.9892-.8021.4316-.1871.9549-.2788 1.566-.2788.9968 0 1.7454.2216 2.2496.657.5042.4392.7677 1.0198.7945 1.7493l-1.6042.0725c-.0688-.4086-.2139-.7027-.4431-.8822-.2253-.1796-.5614-.2674-1.0159-.2674-.466 0-.8289.0955-1.0924.2864-.1719.1223-.2559.2865-.2559.4928 0 .1909.0802.3513.2368.485.2024.1681.6951.3438 1.4743.5309.783.1834 1.3597.3743 1.734.5691.3743.1986.6646.466.8785.8097.2101.34.317.7639.317 1.2643 0 .4545-.126.8823-.3819 1.2795-.2521.3972-.6111.6913-1.0733.8861-.4621.1948-1.0389.2903-1.7264.2903-1.0045 0-1.776-.233-2.3146-.6952-.5385-.4659-.8593-1.142-.9663-2.0319z"/><path d="m81.9092 86.7518v-7.9444h2.5743c.9739 0 1.6118.0382 1.9059.1184.4583.1184.8364.3781 1.1458.7792.3056.3972.4584.9128.4584 1.5468 0 .4851-.0879.8976-.2636 1.2299s-.401.592-.676.783c-.2712.191-.55.3132-.8327.3781-.3819.0726-.9357.1108-1.6614.1108h-1.0466v2.9982zm1.6041-6.6v2.2535h.8785c.6302 0 1.0542-.042 1.2681-.126.2139-.0802.3781-.2101.5003-.3896.1222-.1757.1834-.382.1834-.6188 0-.2864-.0879-.527-.2559-.7142-.1681-.1871-.3858-.3055-.6455-.3514-.191-.0382-.5768-.0535-1.1535-.0535z"/><path d="m89.328 86.7518v-7.9444h5.8934v1.3444h-4.2892v1.7608h3.9913v1.3368h-3.9913v2.1656h4.4382v1.3368z"/><path d="m101.811 83.8332 1.555.4927c-.241.867-.638 1.5125-1.192 1.9326-.554.4202-1.257.6302-2.108.6302-1.0585 0-1.9255-.359-2.6015-1.0809-.6799-.718-1.0198-1.7034-1.0198-2.9562 0-1.3215.3399-2.349 1.0236-3.0785.6837-.7333 1.5813-1.1 2.6927-1.1.974 0 1.761.2903 2.368.8632.363.3399.634.8288.814 1.4629l-1.589.3781c-.092-.4087-.291-.7372-.588-.974-.298-.2368-.661-.359-1.085-.359-.5884 0-1.0658.2139-1.4325.634-.3666.424-.55 1.1077-.55 2.0549 0 1.0045.1795 1.7187.5386 2.1465.3628.4278.8326.6379 1.4089.6379.428 0 .795-.1337 1.1-.4049.31-.2712.531-.699.665-1.2795z"/><path d="m106.273 78.8074h-1.604v7.9444h1.604z"/><path d="m114.99 86.7518h-1.745l-.692-1.8066h-3.177l-.653 1.8066h-1.704l3.094-7.9444h1.696zm-2.952-3.1434-1.096-2.9486-1.074 2.9486z"/><path d="m115.881 86.754v-7.8795h1.605v6.5427h3.987v1.3368z"/><path d="m124.166 78.8074h-1.604v7.9444h1.604z"/><path d="m125.012 86.7518v-1.4475l4.175-5.1525h-3.701v-1.3444h5.813v1.2451l-4.35 5.3625h4.518v1.3368z"/><path d="m139.634 86.7518h-1.746l-.695-1.8066h-3.174l-.657 1.8066h-1.703l3.098-7.9444h1.695zm-2.956-3.1434-1.093-2.9486-1.073 2.9486z"/><path d="m140.488 78.8074h2.933c.661 0 1.165.0497 1.509.1528.469.1375.867.3781 1.199.7295s.584.7792.76 1.2871c.172.508.26 1.1344.26 1.8792 0 .6531-.08 1.2184-.245 1.6882-.198.5806-.481 1.0465-.851 1.4055-.279.2712-.654.4813-1.127.6341-.355.1107-.829.168-1.421.168h-3.017zm1.604 1.3444v5.2632h1.199c.447 0 .772-.0267.97-.0764.26-.0649.474-.1757.646-.3323.172-.1565.313-.4125.42-.7677s.164-.8402.164-1.4552c0-.6111-.057-1.0847-.164-1.4132-.107-.3284-.26-.5843-.455-.7715-.194-.1833-.443-.3055-.744-.3705-.222-.0534-.661-.0764-1.314-.0764z"/><path d="m155.676 86.7518h-1.745l-.695-1.8066h-3.174l-.657 1.8066h-1.7l3.094-7.9444h1.696zm-2.952-3.1434-1.096-2.9486-1.074 2.9486z"/><path d="m176.426 92.5257c5.907 0 10.695-4.7881 10.695-10.6945 0-5.9063-4.788-10.6944-10.695-10.6944-5.906 0-10.694 4.7881-10.694 10.6944 0 5.9064 4.788 10.6945 10.694 10.6945z"/></g><path d="m176.417 88.1432c3.491 0 6.321-2.8301 6.321-6.3212s-2.83-6.3211-6.321-6.3211-6.321 2.83-6.321 6.3211 2.83 6.3212 6.321 6.3212z" fill="#fff"/><path d="m176.417 84.1477c1.284 0 2.326-1.0414 2.326-2.326 0-1.2847-1.042-2.3261-2.326-2.3261-1.285 0-2.326 1.0414-2.326 2.3261 0 1.2846 1.041 2.326 2.326 2.326z" fill="#2b363e"/><path d="m221.004 92.5203c7.425 0 13.444-6.0192 13.444-13.4444s-6.019-13.4445-13.444-13.4445c-7.426 0-13.445 6.0193-13.445 13.4445s6.019 13.4444 13.445 13.4444z" fill="#2b363e"/><path d="m221.009 87.0257c4.388 0 7.944-3.5569 7.944-7.9445s-3.556-7.9444-7.944-7.9444-7.944 3.5568-7.944 7.9444 3.556 7.9445 7.944 7.9445z" fill="#fff"/><path d="m221.022 81.9992c1.613 0 2.922-1.3082 2.922-2.9219s-1.309-2.9219-2.922-2.9219c-1.614 0-2.922 1.3082-2.922 2.9219s1.308 2.9219 2.922 2.9219z" fill="#2b363e"/><path clip-rule="evenodd" d="m197.324 84.3348h-8.685c.168-.8135.256-1.6538.256-2.5132 0-6.8903-5.596-12.4857-12.486-12.4857-6.317 0-11.546 4.7017-12.371 10.7975-1.383-1.8028-2.2-4.06-2.2-6.5083 0-1.883 0-3.766 0-5.416 0-1.3979.554-2.7347 1.539-3.7239.989-.9855 2.326-1.5393 3.724-1.5393h19.162c2.933 0 5.748 1.165 7.822 3.2389.921.9243 1.666 1.9899 2.204 3.1511h12.986c-2.2 2.6392-3.521 6.0347-3.521 9.7357 0 1.8486.332 3.6209.936 5.2632z" fill="#ffd358" fill-rule="evenodd"/><path clip-rule="evenodd" d="m216.262 64.5904-5.821-10.0872c-.428-.7371-.542-1.6118-.321-2.4368.218-.8212.756-1.524 1.494-1.9517h.003c.737-.424 1.612-.5386 2.437-.3209.821.2216 1.524.7601 1.952 1.4973l7.348 12.7302c-.767-.1184-1.554-.1834-2.352-.1834-1.654 0-3.247.2674-4.74.7525z" fill="#ffd358" fill-rule="evenodd"/><path clip-rule="evenodd" d="m206.706 85.2794h-18.051c-1.157-.0802-.741-1.8181-.695-3.0059.137-3.5827-1.75-7.6657-4.58-9.9-3.242-2.5667-7.723-2.9219-11.809-1.0237-3.488 1.6233-6.039 5.0532-6.585 8.9185 0 0-.107.5079-.512.7104-1.761.8746-3.51-3.9226-3.564-7.2226-.019-3.7087-.473-7.7497 1.929-10.0375 1.119-1.0656 2.636-1.6806 4.198-1.7073.122-.0038.24-.0038.363-.0038v-46.9028c.057-.7448.244-.8861.939-.9434 6.493 0 12.986-.0267 19.479.0038 6.975.0841 13.686 3.9417 17.249 10.049l17.058 29.551c3.796-.0114 7.593-.1413 11.382-.0305v-38.6757c.03-.508.424-.9091.939-.9396h2.017c.034 0 .072.0038.111.0076.653.1184.798.4202.828.932v38.7062h1.788l.115.0077c.653.1184.794.4239.825.9357v18.9216l30.525.0076c.458.084.786.3017.825.9358v3.9073c-.031.5079-.421.909-.94.9434h-34.314c-1.256-.0764-.947-2.4521-1.489-4.3237-.287-.993-.887-2.2763-1.097-2.7079l-.997-1.6118c-1.367-1.9021-3.196-3.4605-5.293-4.5146 0 0-.1-.0573-.207-.1566-.164-.0382-.336-.0993-.519-.1757-6.512-2.7691-14.808.084-18.284 6.5503-1.799 3.5177-2.119 7.7497-.752 11.5347 0 0 .05 1.1955-.882 1.2605zm-39.589-21.3889c-2.253.0153-4.282 1.9899-4.324 4.2701-.022 3.3-.408 6.6344.86 9.4837 0 0 .844-2.3528 2.185-4.0715 3.957-5.0646 11.79-6.6344 17.409-3.3115 4.422 2.6163 7.081 7.8833 6.516 13.1007l15.652.0344c-.119-.4202-.214-.8441-.298-1.2681-.776-4.0524.072-8.376 2.314-11.8479h-11.126c-.997-.0687-.829-.718-1.608-1.883-1.814-2.7232-4.973-4.442-8.292-4.5069-6.428-.0382-12.86 0-19.288 0zm66.39-8.2424h-10.294l5.237 9.0674c1.929 1.0083 3.659 2.4139 5.057 4.1021zm-45.685 6.474c3.755.5194 7.204 2.8302 9.045 6.2409l12.035.0459c1.661-1.8257 3.754-3.2618 6.054-4.2014l-5.332-9.2354c-.249-.4469-.405-.9282-.47-1.417l-5.672-3.2733-2.116 3.6628c-.134.233-.359.4049-.619.4737-.263.0725-.542.0343-.775-.0994-.237-.1375-.409-.359-.477-.6225-.069-.2597-.035-.5386.103-.7754 1.176-2.0396 4.071-7.0507 5.248-9.0941.137-.233.359-.4048.622-.4736.26-.0687.539-.0344.775.1031.233.1337.405.3591.478.6188.069.2635.03.5424-.103.7753l-2.116 3.6629 4.927 2.8455c.588-1.4667 1.963-2.6163 3.861-2.6125 1.406.042 2.731.7982 3.48 1.9899 2.444 4.1174 4.793 8.2958 7.188 12.4438.554.0993 1.108.2291 1.658.3895l-.115-.1986-4.732-8.1927c-.019-.0382-.035-.0725-.05-.0993-5.771-10.026-11.531-20.0597-17.359-30.0514-3.205-5.393-9.232-8.9031-15.557-8.9833-6.172-.0267-12.348 0-18.524 0v45.9517c2.07-.0076 4.136-.0152 6.203-.0152v-1.6004h-2.51-.004-.007-.008-.007-.008-.008-.007-.008-.008-.007-.008-.008-.007l-.008-.0038h-.007-.008-.008-.007l-.008-.0038h-.004-.011-.004l-.012-.0039h-.003-.012-.004l-.007-.0038h-.008-.008l-.007-.0038h-.008-.008l-.007-.0038h-.008l-.007-.0038h-.004l-.012-.0039h-.004-.007l-.008-.0038h-.007l-.008-.0038h-.008l-.007-.0038h-.008l-.004-.0038h-.007l-.008-.0038-.008-.0039h-.007l-.008-.0038h-.004l-.007-.0038-.008-.0038h-.008l-.007-.0038-.008-.0039h-.004l-.007-.0038-.008-.0038h-.008l-.007-.0038-.004-.0038h-.008l-.008-.0039-.007-.0038-.004-.0038h-.008l-.007-.0038-.008-.0038-.004-.0039-.007-.0038h-.008l-.008-.0038-.003-.0038-.008-.0038-.008-.0039-.004-.0038-.007-.0038-.008-.0038h-.004l-.007-.0038-.008-.0039-.004-.0038-.007-.0038-.008-.0038-.004-.0038-.007-.0038-.004-.0039-.008-.0038-.008-.0038-.003-.0038-.008-.0038-.008-.0039-.003-.0038-.008-.0038-.004-.0038-.008-.0038-.003-.0039-.008-.0038-.004-.0038-.007-.0076-.004-.0039-.008-.0038-.004-.0038-.007-.0038-.004-.0038-.008-.0039-.004-.0038-.007-.0076-.004-.0038-.008-.0039-.004-.0038-.007-.0038-.004-.0038-.008-.0077-.004-.0038-.003-.0038-.008-.0038-.004-.0076-.007-.0039-.004-.0038-.004-.0038-.008-.0076-.004-.0039-.003-.0038-.008-.0076-.004-.0038-.004-.0039-.007-.0076-.004-.0038-.004-.0038-.008-.0077-.003-.0038-.004-.0038-.004-.0077-.008-.0038-.003-.0038-.004-.0076-.004-.0039-.008-.0076-.004-.0038-.003-.0077-.004-.0038-.008-.0076-.004-.0038-.003-.0039-.004-.0076-.004-.0038-.004-.0076-.008-.0039-.003-.0076-.004-.0038-.004-.0077-.004-.0038-.004-.0076-.003-.0038-.004-.0077-.008-.0076v-.0038l-.008-.0077-.003-.0038-.004-.0076-.004-.0039-.004-.0076-.004-.0038-.004-.0077-.003-.0038-.004-.0076-.004-.0077-.004-.0076-.004-.0038-.003-.0076v-.0039l-.008-.0076v-.0076l-.004-.0039-.004-.0076-.004-.0076-.003-.0039-.004-.0076-.004-.0076-.004-.0077v-.0038l-.004-.0076-.003-.0039-.004-.0076-.004-.0076v-.0077l-.004-.0038-.004-.0076-.004-.0077-.003-.0076v-.0038l-.004-.0077-.004-.0076v-.0076l-.004-.0077-.004-.0038v-.0076l-.003-.0077-.004-.0076v-.0077l-.004-.0076-.004-.0038v-.0077l-.004-.0076-.004-.0076v-.0077l-.003-.0076v-.0038l-.004-.0077v-.0076l-.004-.0076v-.0077l-.004-.0076v-.0038l-.004-.0115v-.0038l-.003-.0077v-.0076l-.004-.0076v-.0077-.0076l-.004-.0077v-.0076l-.004-.0038v-.0115-.0038l-.004-.0115v-.0038-.0114l-.004-.0038v-.0077-.0076-.0077l-.003-.0076v-.0076-.0077-.0076l-.004-.0077v-.0076-.0076-.0077-.0076-.0077l-.004-.0076v-.0076-.0077-.0076-.0076-.0077-.0076-.0077-.0076-.0076-.0077c0-3.7507 0-15.2434 0-18.9941 0-.6607.535-1.1955 1.195-1.1955h.004c2.323 0 4.209 1.883 4.209 4.2091v11.7677h11.768c2.326 0 4.213 1.8868 4.213 4.2128 0 .6608-.539 1.1955-1.199 1.1955h-4.141zm25.327-11.4927c-1.619.0764-2.689 1.9899-1.887 3.4145l5.447 9.4341c1.054-.2941 2.994-.6302 4.919-.5653-2.154-3.7316-4.262-7.4899-6.462-11.1948-.428-.6837-1.196-1.1038-2.017-1.0885zm-27.183 11.3781v-1.6271h-8.628v1.6004c2.876 0 5.752.0114 8.628.0267z" fill="#2d363e" fill-rule="evenodd"/><path d="m26.525 94.4675c1.7264 0 3.4757.0841 5.2479.2521 1.7684.1642 3.5941.4011 5.4771.7104 1.8792.3132 3.617.6646 5.2097 1.0657 1.5966.3972 3.0556.8517 4.3848 1.3597l-5.5802 15.9686c-1.7455-2.348-3.6934-4.167-5.84-5.461-2.1465-1.295-4.3961-1.944-6.7413-1.944-1.3941 0-2.3986.282-3.0212.847-.6187.566-.9281 1.269-.9281 2.109 0 .798.6035 1.558 1.8104 2.291 1.2031.73 3.0709 1.57 5.5917 2.521 6.5733 2.414 10.8243 4.817 12.7493 7.204 1.8792 2.349 2.8226 5.248 2.8226 8.7 0 5.378-2.0434 9.499-6.1264 12.364-4.083 2.868-10.1636 4.301-18.2417 4.301-4.2052 0-8.2003-.287-11.9854-.863-3.78508-.577-7.5014-1.563-11.152784-2.957l5.477084-16.928c1.54687 2.433 3.50625 4.393 5.8743 5.875 2.349 1.482 4.6139 2.223 6.8063 2.223 1.0847 0 1.9861-.271 2.7079-.814.7181-.542 1.0771-1.222 1.0771-2.039 0-.974-.5041-1.822-1.5087-2.54-1.0083-.718-2.5743-1.49-4.6979-2.307-5.225-1.971-8.81143-4.106-10.75935-6.409-1.925-2.323-2.8875-5.168-2.8875-8.529 0-5.645 2.03577-9.889 6.11111-12.7342 4.07154-2.8416 10.11394-4.2663 18.12324-4.2663z" fill="#da1c1c"/><path d="m95.9759 95.2732v12.7148h-19.6549v6.275h13.6775v12.715h-13.6775v6.241h19.6549v12.715h-42.0635v-50.6608z" fill="#da1c1c"/><path d="m129.432 94.4675c4.182 0 8.498.6226 12.948 1.8601 2.211.6187 4.285 1.3406 6.222 2.158 1.936.8173 3.735 1.7374 5.396 2.7534l-10.824 15.24c-4.514-2.169-8.674-3.254-12.482-3.254-2.544 0-4.591.664-6.141 1.994-1.547 1.283-2.323 3.021-2.323 5.209 0 2.147.653 3.713 1.96 4.698 1.306.986 3.353 1.478 6.141 1.478v-7.933h22.44v27.321l-11.054.531c-1.791.088-3.308.149-4.549.183-1.237.034-2.211.05-2.922.05-7.257 0-13.177-.886-17.76-2.655-4.515-1.749-8.189-4.77-11.023-9.063-2.788-4.274-4.182-9.14-4.182-14.61 0-4.866 1.153-9.338 3.452-13.41 2.281-4.029 5.546-7.1269 9.794-9.2963 4.228-2.1694 9.197-3.2542 14.907-3.2542z" fill="#da1c1c"/><path d="m202.928 95.2732v12.7148h-19.655v6.275h13.677v12.715h-13.677v6.241h19.655v12.715h-42.064v-50.6608z" fill="#da1c1c"/><path d="m231.385 95.2732 9.159 10.5568 9.198-10.5568h21.744v50.6608h-22.439v-25.365l-8.503 9.793-8.498-9.793v25.365h-22.439v-50.6608z" fill="#da1c1c"/></svg>