<?xml version="1.0" encoding="UTF-8"?>
<svg width="278px" height="33px" viewBox="0 0 278 33" version="1.1" xmlns="http://www.w3.org/2000/svg" xmlns:xlink="http://www.w3.org/1999/xlink">
    <!-- Generator: Sketch 42 (36781) - http://www.bohemiancoding.com/sketch -->
    <title>Page 1</title>
    <desc>Created with Sketch.</desc>
    <defs></defs>
    <g id="Page-1" stroke="none" stroke-width="1" fill="none" fill-rule="evenodd">
        <g fill="#2B6B9C">
            <path d="M81.5359,26.6512 C81.182,26.6512 80.8952,26.9381 80.8952,27.2919 C80.8952,27.6922 80.5695,28.0179 80.1691,28.0179 C79.7688,28.0179 79.4431,27.6922 79.4431,27.2919 C79.4431,26.8915 79.7688,26.5658 80.1691,26.5658 C80.5229,26.5658 80.8098,26.2789 80.8098,25.9251 C80.8098,25.5713 80.5229,25.2845 80.1691,25.2845 C79.0623,25.2845 78.1618,26.185 78.1618,27.2919 C78.1618,28.3987 79.0623,29.2992 80.1691,29.2992 C81.276,29.2992 82.1765,28.3987 82.1765,27.2919 C82.1765,26.9381 81.8897,26.6512 81.5359,26.6512 Z" id="Fill-1"></path>
            <path d="M89.7362,26.6512 C89.3824,26.6512 89.0956,26.9381 89.0956,27.2919 C89.0956,27.6922 88.7699,28.0179 88.3695,28.0179 C87.9691,28.0179 87.6434,27.6922 87.6434,27.2919 C87.6434,26.8915 87.9691,26.5658 88.3695,26.5658 C88.7233,26.5658 89.0102,26.2789 89.0102,25.9251 C89.0102,25.5713 88.7233,25.2845 88.3695,25.2845 C87.2626,25.2845 86.3621,26.185 86.3621,27.2919 C86.3621,28.3987 87.2626,29.2992 88.3695,29.2992 C89.4764,29.2992 90.3769,28.3987 90.3769,27.2919 C90.3769,26.9381 90.09,26.6512 89.7362,26.6512 Z" id="Fill-2"></path>
            <path d="M111.604,26.6512 C111.25,26.6512 110.963,26.9381 110.963,27.2919 C110.963,27.6922 110.638,28.0179 110.237,28.0179 C109.837,28.0179 109.511,27.6922 109.511,27.2919 C109.511,26.8915 109.837,26.5658 110.237,26.5658 C110.591,26.5658 110.878,26.2789 110.878,25.9251 C110.878,25.5713 110.591,25.2845 110.237,25.2845 C109.13,25.2845 108.23,26.185 108.23,27.2919 C108.23,28.3987 109.13,29.2992 110.237,29.2992 C111.344,29.2992 112.245,28.3987 112.245,27.2919 C112.245,26.9381 111.958,26.6512 111.604,26.6512 Z" id="Fill-3"></path>
            <path d="M119.077,17.7095 C119.077,17.6961 119.077,17.6827 119.075,17.6692 C119.075,17.6599 119.073,17.6508 119.072,17.6417 C119.071,17.6305 119.069,17.6193 119.067,17.608 C119.065,17.5966 119.062,17.5854 119.06,17.5742 C119.057,17.5655 119.055,17.5567 119.053,17.548 C119.049,17.5348 119.045,17.5219 119.04,17.5091 C119.038,17.5044 119.037,17.4996 119.035,17.4948 L116.293,10.3633 C115.795,9.0696 114.529,8.2005 113.143,8.2005 L107.504,8.2005 C106.904,8.2005 106.365,8.4654 105.997,8.8838 L104.728,8.8838 L104.728,4.9067 C104.728,4.188 104.448,3.5122 103.939,3.0041 L103.173,2.2378 C102.923,1.9876 102.517,1.9876 102.267,2.2378 C102.017,2.488 102.017,2.8936 102.267,3.1438 L103.033,3.9101 C103.3,4.1763 103.446,4.5302 103.446,4.9067 L103.446,8.8837 L102.678,8.8837 L102.678,7.4743 C102.678,6.7442 102.084,6.1503 101.354,6.1503 L76.7524,6.1503 C76.0222,6.1503 75.4283,6.7442 75.4283,7.4743 L75.4283,22.5083 C75.4283,23.2384 76.0222,23.8323 76.7523,23.8323 L76.9326,23.8323 C76.0078,24.6981 75.4283,25.9282 75.4283,27.2919 C75.4283,29.906 77.555,32.0327 80.1691,32.0327 C81.918,32.0327 83.4476,31.0801 84.2693,29.6672 C85.0911,31.0801 86.6206,32.0327 88.3695,32.0327 C90.7662,32.0327 92.752,30.2445 93.0658,27.9325 L93.8791,27.9325 L93.8791,27.9752 C93.8791,29.0821 94.7796,29.9826 95.8865,29.9826 L99.9867,29.9826 C101.094,29.9826 101.994,29.0821 101.994,27.9752 L101.994,27.9325 L105.541,27.9325 C105.855,30.2445 107.84,32.0327 110.237,32.0327 C112.636,32.0327 114.623,30.2412 114.934,27.926 C114.963,27.9299 114.991,27.9325 115.021,27.9325 L117.754,27.9325 C118.484,27.9325 119.078,27.3386 119.078,26.6085 L119.078,17.7248 C119.078,17.7196 119.077,17.7146 119.077,17.7095 Z M117.797,23.2344 L117.071,23.2344 C117.049,23.2344 117.028,23.2136 117.028,23.1917 L117.028,22.5083 C117.028,22.4864 117.049,22.4656 117.071,22.4656 L117.797,22.4656 L117.797,23.2344 Z M117.242,16.4007 L110.921,16.4007 C110.143,16.4007 109.511,15.7685 109.511,14.9913 L109.511,12.2151 L115.632,12.2151 L117.242,16.4007 Z M105.497,10.1651 C105.497,10.1793 105.496,10.1935 105.496,10.2078 L105.496,22.551 L102.677,22.551 L102.677,10.1651 L105.497,10.1651 Z M76.7523,22.551 C76.7287,22.551 76.7096,22.5318 76.7096,22.5083 L76.7096,7.4743 C76.7096,7.4508 76.7287,7.4316 76.7523,7.4316 L101.353,7.4316 C101.377,7.4316 101.396,7.4508 101.396,7.4743 L101.396,22.551 L76.7523,22.551 Z M85.1329,23.8323 C84.7949,24.1487 84.5035,24.5139 84.2693,24.9165 C84.0352,24.5139 83.7437,24.1487 83.4057,23.8323 L85.1329,23.8323 Z M80.1691,30.7514 C78.2615,30.7514 76.7096,29.1995 76.7096,27.2919 C76.7096,25.3843 78.2615,23.8323 80.1691,23.8323 C82.0767,23.8323 83.6287,25.3843 83.6287,27.2919 C83.6287,29.1995 82.0767,30.7514 80.1691,30.7514 Z M88.3695,30.7514 C86.4619,30.7514 84.91,29.1995 84.91,27.2919 C84.91,25.3843 86.4619,23.8323 88.3695,23.8323 C90.2771,23.8323 91.829,25.3843 91.829,27.2919 C91.829,29.1995 90.2771,30.7514 88.3695,30.7514 Z M100.713,27.9752 C100.713,28.3756 100.387,28.7013 99.9867,28.7013 L95.8865,28.7013 C95.4861,28.7013 95.1604,28.3756 95.1604,27.9752 L95.1604,26.6085 C95.1604,26.2081 95.4861,25.8824 95.8865,25.8824 L99.9867,25.8824 C100.387,25.8824 100.713,26.2081 100.713,26.6085 L100.713,27.9752 Z M99.9867,24.6011 L95.8865,24.6011 C94.7796,24.6011 93.8791,25.5016 93.8791,26.6085 L93.8791,26.6512 L93.0658,26.6512 C92.9157,25.5454 92.3834,24.56 91.6061,23.8323 L107.001,23.8323 C106.223,24.56 105.691,25.5454 105.541,26.6512 L101.994,26.6512 L101.994,26.6085 C101.994,25.5016 101.094,24.6011 99.9867,24.6011 Z M110.237,30.7514 C108.33,30.7514 106.778,29.1995 106.778,27.2919 C106.778,25.3843 108.33,23.8323 110.237,23.8323 C112.145,23.8323 113.697,25.3843 113.697,27.2919 C113.697,29.1995 112.145,30.7514 110.237,30.7514 Z M117.754,26.6512 L115.021,26.6512 C114.991,26.6512 114.963,26.6539 114.934,26.6577 C114.623,24.3425 112.636,22.551 110.237,22.551 L106.778,22.551 L106.778,10.2078 C106.778,9.8074 107.103,9.4817 107.504,9.4817 L113.143,9.4817 C114.003,9.4817 114.788,10.0209 115.097,10.8232 L115.139,10.9338 L108.87,10.9338 C108.517,10.9338 108.23,11.2207 108.23,11.5745 L108.23,14.9913 C108.23,16.475 109.437,17.6821 110.921,17.6821 L117.735,17.6821 L117.797,17.8438 L117.797,21.1843 L117.071,21.1843 C116.341,21.1843 115.747,21.7782 115.747,22.5083 L115.747,23.1917 C115.747,23.9218 116.341,24.5157 117.071,24.5157 L117.797,24.5157 L117.797,26.6085 C117.797,26.632 117.778,26.6512 117.754,26.6512 Z" id="Fill-4"></path>
            <path d="M96.5699,26.6512 C96.4007,26.6512 96.2359,26.7195 96.1171,26.8391 C95.9976,26.9579 95.9292,27.1236 95.9292,27.2919 C95.9292,27.4601 95.9976,27.6259 96.1171,27.7446 C96.2359,27.8642 96.4016,27.9325 96.5699,27.9325 C96.7381,27.9325 96.9039,27.8642 97.0226,27.7446 C97.1422,27.6259 97.2105,27.4601 97.2105,27.2919 C97.2105,27.1236 97.1422,26.9579 97.0226,26.8391 C96.9039,26.7195 96.7381,26.6512 96.5699,26.6512 Z" id="Fill-5"></path>
            <path d="M78.8024,10.1651 L99.3033,10.1651 C99.6571,10.1651 99.944,9.8782 99.944,9.5244 C99.944,9.1706 99.6571,8.8837 99.3033,8.8837 L78.8024,8.8837 C78.4486,8.8837 78.1618,9.1706 78.1618,9.5244 C78.1618,9.8782 78.4486,10.1651 78.8024,10.1651 Z" id="Fill-6"></path>
            <path d="M78.8024,12.8985 L99.3033,12.8985 C99.6571,12.8985 99.944,12.6117 99.944,12.2579 C99.944,11.904 99.6571,11.6172 99.3033,11.6172 L78.8024,11.6172 C78.4486,11.6172 78.1618,11.904 78.1618,12.2579 C78.1618,12.6117 78.4486,12.8985 78.8024,12.8985 Z" id="Fill-7"></path>
            <path d="M78.8024,15.632 L99.3033,15.632 C99.6571,15.632 99.944,15.3451 99.944,14.9913 C99.944,14.6375 99.6571,14.3507 99.3033,14.3507 L78.8024,14.3507 C78.4486,14.3507 78.1618,14.6375 78.1618,14.9913 C78.1618,15.3451 78.4486,15.632 78.8024,15.632 Z" id="Fill-8"></path>
            <path d="M78.8024,18.3654 L99.3033,18.3654 C99.6571,18.3654 99.944,18.0786 99.944,17.7248 C99.944,17.371 99.6571,17.0841 99.3033,17.0841 L78.8024,17.0841 C78.4486,17.0841 78.1618,17.371 78.1618,17.7248 C78.1618,18.0786 78.4486,18.3654 78.8024,18.3654 Z" id="Fill-9"></path>
            <path d="M99.944,20.4582 C99.944,20.1044 99.6571,19.8176 99.3033,19.8176 L78.8024,19.8176 C78.4486,19.8176 78.1618,20.1044 78.1618,20.4582 C78.1618,20.812 78.4486,21.0989 78.8024,21.0989 L99.3033,21.0989 C99.6571,21.0989 99.944,20.812 99.944,20.4582 Z" id="Fill-10"></path>
            <path d="M163.049,26.6512 C162.695,26.6512 162.408,26.9381 162.408,27.2919 C162.408,27.6922 162.083,28.0179 161.682,28.0179 C161.282,28.0179 160.956,27.6922 160.956,27.2919 C160.956,26.8915 161.282,26.5658 161.682,26.5658 C162.036,26.5658 162.323,26.2789 162.323,25.9251 C162.323,25.5713 162.036,25.2845 161.682,25.2845 C160.575,25.2845 159.675,26.185 159.675,27.2919 C159.675,28.3987 160.575,29.2992 161.682,29.2992 C162.789,29.2992 163.69,28.3987 163.69,27.2919 C163.69,26.9381 163.403,26.6512 163.049,26.6512 Z" id="Fill-11"></path>
            <path d="M184.233,25.9678 C183.879,25.9678 183.593,26.2547 183.593,26.6085 C183.593,27.3857 182.96,28.0179 182.183,28.0179 C181.406,28.0179 180.774,27.3857 180.774,26.6085 C180.774,25.8313 181.406,25.1991 182.183,25.1991 C182.537,25.1991 182.824,24.9122 182.824,24.5584 C182.824,24.2046 182.537,23.9178 182.183,23.9178 C180.7,23.9178 179.492,25.1248 179.492,26.6085 C179.492,28.0922 180.7,29.2992 182.183,29.2992 C183.667,29.2992 184.874,28.0922 184.874,26.6085 C184.874,26.2547 184.587,25.9678 184.233,25.9678 Z" id="Fill-12"></path>
            <path d="M199.951,28.0179 L189.7,28.0179 C189.677,28.0179 189.657,27.9988 189.657,27.9752 L189.657,16.358 C189.657,15.6279 189.064,15.034 188.333,15.034 L186.924,15.034 L186.924,1.324 C186.924,0.5939 186.33,0 185.6,0 L181.5,0 C181.146,0 180.859,0.2869 180.859,0.6407 C180.859,0.9945 181.146,1.2813 181.5,1.2813 L182.909,1.2813 L182.909,19.1701 C182.669,19.1471 182.427,19.1342 182.183,19.1342 C181.938,19.1342 181.696,19.1464 181.457,19.1696 L181.457,15.7237 C181.457,15.1323 181.301,14.549 181.005,14.0367 L175.974,5.3218 C175.414,4.1637 174.224,3.4168 172.936,3.4168 L163.049,3.4168 C161.942,3.4168 161.042,4.3173 161.042,5.4242 L161.042,17.0841 L160.316,17.0841 C158.832,17.0841 157.625,18.2912 157.625,19.7749 L157.625,24.5584 C157.625,24.6361 157.639,24.7104 157.665,24.7793 C157.207,25.5084 156.941,26.3694 156.941,27.2919 C156.941,29.906 159.068,32.0327 161.682,32.0327 C163.837,32.0327 165.659,30.5875 166.234,28.6159 L175.481,28.6159 C175.483,28.6159 175.484,28.6161 175.486,28.6161 C175.487,28.6161 175.488,28.6159 175.489,28.6159 L177.146,28.6159 C177.945,30.6157 179.901,32.0327 182.183,32.0327 C185.174,32.0327 187.607,29.5994 187.607,26.6085 C187.607,25.6491 187.356,24.7476 186.917,23.9648 C186.921,23.9354 186.924,23.9056 186.924,23.875 L186.924,21.1752 C186.925,21.1536 186.925,21.132 186.924,21.1106 L186.924,16.3153 L188.333,16.3153 C188.357,16.3153 188.376,16.3345 188.376,16.358 L188.376,27.9752 C188.376,28.7053 188.97,29.2992 189.7,29.2992 L199.951,29.2992 C200.304,29.2992 200.591,29.0124 200.591,28.6586 C200.591,28.3048 200.304,28.0179 199.951,28.0179 Z M185.6,1.2813 C185.624,1.2813 185.643,1.3005 185.643,1.324 L185.643,15.034 L184.191,15.034 L184.191,1.2813 L185.6,1.2813 Z M174.828,5.8951 C174.835,5.9107 174.843,5.9261 174.852,5.9411 L179.707,14.3507 L169.84,14.3507 L169.84,6.7909 C169.84,6.4371 169.553,6.1503 169.199,6.1503 C168.845,6.1503 168.559,6.4371 168.559,6.7909 L168.559,14.3507 L167.149,14.3507 C166.372,14.3507 165.74,13.7184 165.74,12.9412 L165.74,4.6981 L172.936,4.6981 C173.741,4.6981 174.483,5.168 174.828,5.8951 Z M162.323,5.4242 C162.323,5.0238 162.649,4.6981 163.049,4.6981 L164.458,4.6981 L164.458,12.9412 C164.458,14.4249 165.666,15.632 167.149,15.632 L180.133,15.632 C180.147,15.632 180.16,15.6308 180.173,15.63 C180.174,15.6612 180.176,15.6924 180.176,15.7237 L180.176,19.4083 C179.292,19.6549 178.475,20.0601 177.755,20.5911 L175.637,18.4726 C174.741,17.5772 173.551,17.0841 172.285,17.0841 L162.323,17.0841 L162.323,5.4242 Z M161.682,30.7514 C159.775,30.7514 158.223,29.1995 158.223,27.2919 C158.223,25.3843 159.775,23.8323 161.682,23.8323 C163.59,23.8323 165.142,25.3843 165.142,27.2919 C165.142,29.1995 163.59,30.7514 161.682,30.7514 Z M161.682,22.551 C160.646,22.551 159.687,22.8861 158.906,23.4524 L158.906,19.7749 C158.906,18.9977 159.538,18.3654 160.316,18.3654 L172.285,18.3654 C173.209,18.3654 174.077,18.7253 174.731,19.3787 L176.791,21.4385 C175.502,22.782 174.709,24.6044 174.709,26.6085 C174.709,26.8511 174.721,27.0936 174.745,27.3346 L166.422,27.3346 C166.422,27.3203 166.423,27.3062 166.423,27.2919 C166.423,24.6777 164.296,22.551 161.682,22.551 Z M176.034,27.3346 C176.006,27.0941 175.99,26.8515 175.99,26.6085 C175.99,23.1936 178.768,20.4155 182.183,20.4155 C183.431,20.4155 184.62,20.7803 185.643,21.472 L185.643,22.4342 C184.703,21.6541 183.497,21.1843 182.183,21.1843 C179.192,21.1843 176.759,23.6176 176.759,26.6085 C176.759,26.8549 176.777,27.0968 176.809,27.3346 L176.034,27.3346 Z M182.183,30.7514 C179.899,30.7514 178.04,28.8929 178.04,26.6085 C178.04,24.3241 179.899,22.4656 182.183,22.4656 C184.468,22.4656 186.326,24.3241 186.326,26.6085 C186.326,28.8929 184.468,30.7514 182.183,30.7514 Z M185.643,19.9803 C185.179,19.7371 184.693,19.5458 184.191,19.4064 L184.191,16.3153 L185.643,16.3153 L185.643,19.9803 Z" id="Fill-13"></path>
            <path d="M31.4802,8.5916 L31.4802,4.6098 L0,4.6098 L0,8.5916 L2.171,8.5916 L2.171,10.3987 L0,10.3987 L0,32.0327 L3.9818,32.0327 L3.9818,19.4899 L9.0692,14.4025 L9.0473,14.3805 L12.302,14.3805 L12.302,17.9992 L13.3871,17.9992 L13.3871,20.5319 L15.1964,20.5319 L15.1964,23.4264 L15.7401,23.4264 C16.6375,23.4264 17.3675,24.1564 17.3675,25.0537 C17.3675,25.9511 16.6375,26.6811 15.7401,26.6811 C14.8428,26.6811 14.1128,25.9511 14.1128,25.0537 L13.0254,25.0537 C13.0254,26.5506 14.2432,27.7684 15.7401,27.7684 C17.237,27.7684 18.4548,26.5506 18.4548,25.0537 C18.4548,23.7429 17.5211,22.6462 16.2838,22.3937 L16.2838,20.5319 L18.0931,20.5319 L18.0931,17.9992 L19.1782,17.9992 L19.1782,14.3805 L22.3897,14.3805 L27.4983,19.4899 L27.4983,32.0327 L31.4801,32.0327 L31.4801,10.3988 L29.3091,10.3988 L29.3091,8.5916 L31.4802,8.5916 Z M2.8945,30.9453 L1.0873,30.9453 L1.0873,28.7765 L2.8944,28.7765 L2.8944,30.9453 L2.8945,30.9453 Z M2.8945,27.6892 L1.0873,27.6892 L1.0873,14.3805 L2.8944,14.3805 L2.8944,27.6892 L2.8945,27.6892 Z M3.9818,17.9522 L3.9818,14.3805 L7.5535,14.3805 L3.9818,17.9522 Z M12.302,13.2932 L1.0873,13.2932 L1.0873,11.4861 L12.302,11.4861 L12.302,13.2932 Z M12.302,10.3988 L3.2583,10.3988 L3.2583,8.5916 L12.302,8.5916 L12.302,10.3988 Z M17.0058,19.4446 L14.4745,19.4446 L14.4745,17.9992 L17.0058,17.9992 L17.0058,19.4446 Z M18.0909,16.9118 L13.3893,16.9118 L13.3893,8.5916 L18.0909,8.5916 L18.0909,16.9118 Z M27.4985,17.9522 L23.9274,14.3805 L27.4985,14.3805 L27.4985,17.9522 Z M30.393,30.9453 L28.5858,30.9453 L28.5858,28.7765 L30.393,28.7765 L30.393,30.9453 Z M30.393,27.6892 L28.5858,27.6892 L28.5858,14.3805 L30.393,14.3805 L30.393,27.6892 Z M30.393,11.4861 L30.393,13.2932 L19.1783,13.2932 L19.1783,11.4861 L30.393,11.4861 Z M19.1783,10.3988 L19.1783,8.5916 L28.2219,8.5916 L28.2219,10.3987 L19.1783,10.3987 L19.1783,10.3988 Z M1.0873,7.5043 L1.0873,5.6972 L30.3929,5.6972 L30.3929,7.5043 L1.0873,7.5043 Z" id="Fill-14"></path>
            <polygon id="Fill-15" points="14.6539 11.1244 16.8249 11.1244 16.8249 10.037 14.6539 10.037"></polygon>
            <polygon id="Fill-16" points="14.6539 13.2954 16.8249 13.2954 16.8249 12.208 14.6539 12.208"></polygon>
            <polygon id="Fill-17" points="14.6539 15.4664 16.8249 15.4664 16.8249 14.379 14.6539 14.379"></polygon>
            <path d="M252.598,8.2116 L249.951,5.1871 L243.454,5.1871 L243.454,13.8849 L246.1,13.8849 L246.1,27.872 L243.833,27.872 L243.833,32.0327 L251.774,32.0327 L251.774,28.6302 L268.785,28.6302 L268.785,32.0327 L276.727,32.0327 L276.727,27.872 L274.459,27.872 L274.459,13.8849 L277.105,13.8849 L277.105,8.2116 L252.598,8.2116 Z M244.59,6.3233 L249.436,6.3233 L251.088,8.2117 L244.59,8.2117 L244.59,6.3233 Z M250.638,30.8965 L244.969,30.8965 L244.969,29.0082 L248.937,29.0082 L248.937,27.872 L247.236,27.872 L247.236,13.8849 L250.637,13.8849 L250.637,30.8965 L250.638,30.8965 Z M268.785,27.4941 L251.774,27.4941 L251.774,25.6057 L268.785,25.6057 L268.785,27.4941 Z M268.785,24.4696 L251.774,24.4696 L251.774,21.8245 L268.785,21.8245 L268.785,24.4696 Z M268.785,20.6884 L251.774,20.6884 L251.774,18.8 L268.785,18.8 L268.785,20.6884 Z M251.774,17.6639 L251.774,13.8849 L254.419,13.8849 L254.419,17.6639 L251.774,17.6639 Z M255.555,17.6639 L255.555,13.8849 L259.712,13.8849 L259.712,17.6639 L255.555,17.6639 Z M260.848,17.6639 L260.848,13.8849 L265.005,13.8849 L265.005,17.6639 L260.848,17.6639 Z M268.785,17.6639 L266.141,17.6639 L266.141,13.8849 L268.785,13.8849 L268.785,17.6639 Z M275.591,29.0082 L275.591,30.8966 L269.921,30.8966 L269.921,13.8849 L273.322,13.8849 L273.322,27.872 L271.622,27.872 L271.622,29.0082 L275.591,29.0082 Z M275.969,12.7487 L244.59,12.7487 L244.59,9.3478 L275.969,9.3478 L275.969,12.7487 Z" id="Fill-18"></path>
            <polygon id="Fill-19" points="273.135 11.6168 274.6469 11.6168 274.6469 10.4806 273.135 10.4806"></polygon>
            <polygon id="Fill-20" points="245.913 11.6168 247.4256 11.6168 247.4256 10.4806 245.913 10.4806"></polygon>
        </g>
    </g>
</svg>