<?xml version="1.0" encoding="UTF-8"?>
<svg width="360px" height="113px" viewBox="0 0 360 113" version="1.1" xmlns="http://www.w3.org/2000/svg" xmlns:xlink="http://www.w3.org/1999/xlink">
    <!-- Generator: Sketch 42 (36781) - http://www.bohemiancoding.com/sketch -->
    <title>Page 1</title>
    <desc>Created with Sketch.</desc>
    <defs></defs>
    <g id="Page-1" stroke="none" stroke-width="1" fill="none" fill-rule="evenodd">
        <g>
            <path d="M37.3158,76.328 L3.8164,76.328 C2.4736,76.328 1.5018,76.0276 0.9011,75.4269 C0.3004,74.8262 0,73.8544 0,72.5116 L0,60.1083 C0,58.7655 0.3004,57.7937 0.9011,57.193 C1.5018,56.5923 2.4736,56.2919 3.8164,56.2919 L32.3333,56.2919 C33.2521,56.2919 33.9411,55.9916 34.4005,55.3908 C34.8599,54.7901 35.0896,54.0657 35.0896,53.2176 C35.0896,52.0161 34.8599,51.1327 34.4005,50.5673 C33.9411,50.0019 33.2521,49.6839 32.3333,49.6132 L16.4317,47.387 C11.4845,46.6803 7.5091,45.0548 4.5055,42.5105 C1.5018,39.9662 0,35.7258 0,29.7892 L0,18.6581 C0,12.651 1.9435,8.039 5.8306,4.824 C9.7177,1.608 15.0889,0 21.9442,0 L51.6273,0 C52.9701,0 53.9419,0.301 54.5426,0.901 C55.1433,1.502 55.4437,2.474 55.4437,3.817 L55.4437,16.4318 C55.4437,17.7746 55.1433,18.7464 54.5426,19.3471 C53.9419,19.9479 52.9701,20.2482 51.6273,20.2482 L26.9268,20.2482 C26.008,20.2482 25.3013,20.5486 24.8065,21.1493 C24.3118,21.75 24.0645,22.5098 24.0645,23.4286 C24.0645,24.3473 24.3118,25.1247 24.8065,25.7608 C25.3013,26.3969 26.008,26.7502 26.9268,26.8209 L42.7224,28.9411 C47.6696,29.6479 51.6626,31.2734 54.7016,33.8176 C57.7406,36.3619 59.2601,40.6023 59.2601,46.5389 L59.2601,57.6701 C59.2601,63.6773 57.2989,68.2888 53.3765,71.5045 C49.4541,74.7201 44.1005,76.328 37.3158,76.328 Z" id="Fill-1" fill="#EE4838"></path>
            <path d="M123.821,76.328 L74.6316,76.328 C73.2888,76.328 72.3171,76.0276 71.7163,75.4269 C71.1156,74.8262 70.8153,73.8544 70.8153,72.5116 L70.8153,3.817 C70.8153,2.474 71.1156,1.502 71.7163,0.901 C72.3171,0.301 73.2888,0 74.6316,0 L123.821,0 C125.163,0 126.135,0.301 126.736,0.901 C127.337,1.502 127.637,2.474 127.637,3.817 L127.637,16.2198 C127.637,17.5626 127.337,18.5344 126.736,19.1351 C126.135,19.7358 125.163,20.0362 123.821,20.0362 L94.5617,20.0362 L94.5617,28.199 L115.234,28.199 C116.577,28.199 117.548,28.4994 118.149,29.1001 C118.75,29.7009 119.05,30.6726 119.05,32.0154 L119.05,43.3586 C119.05,44.7014 118.75,45.6732 118.149,46.2739 C117.548,46.8746 116.577,47.175 115.234,47.175 L94.5617,47.175 L94.5617,56.2919 L123.821,56.2919 C125.163,56.2919 126.135,56.5923 126.736,57.193 C127.337,57.7937 127.637,58.7655 127.637,60.1083 L127.637,72.5116 C127.637,73.8544 127.337,74.8262 126.736,75.4269 C126.135,76.0276 125.163,76.328 123.821,76.328 Z" id="Fill-2" fill="#EE4838"></path>
            <path d="M197.922,76.328 L164.529,76.328 C155.695,76.328 149.14,74.5611 144.864,71.0274 C140.588,67.4937 138.45,62.0518 138.45,54.7018 L138.45,21.6264 C138.45,14.2763 140.588,8.834 144.864,5.301 C149.14,1.767 155.695,0 164.529,0 L191.032,0 C192.374,0 193.346,0.301 193.947,0.901 C194.548,1.502 194.848,2.474 194.848,3.817 L194.848,16.6439 C194.848,17.9867 194.548,18.9584 193.947,19.5592 C193.346,20.1599 192.374,20.4602 191.032,20.4602 L168.981,20.4602 C166.79,20.4602 165.165,20.902 164.105,21.7854 C163.045,22.6688 162.515,23.9939 162.515,25.7608 L162.515,51.0974 C162.515,52.8642 162.921,54.1717 163.734,55.0198 C164.547,55.8679 165.766,56.2919 167.391,56.2919 L177.674,56.2919 L177.674,39.7542 C177.674,38.4114 177.975,37.4397 178.575,36.8389 C179.176,36.2382 180.148,35.9378 181.491,35.9378 L197.922,35.9378 C199.265,35.9378 200.237,36.2382 200.838,36.8389 C201.438,37.4397 201.739,38.4114 201.739,39.7542 L201.739,72.5116 C201.739,73.8544 201.438,74.8262 200.838,75.4269 C200.237,76.0276 199.265,76.328 197.922,76.328 Z" id="Fill-3" fill="#EE4838"></path>
            <path d="M267.677,76.328 L218.488,76.328 C217.146,76.328 216.174,76.0276 215.573,75.4269 C214.972,74.8262 214.672,73.8544 214.672,72.5116 L214.672,3.817 C214.672,2.474 214.972,1.502 215.573,0.901 C216.174,0.301 217.146,0 218.488,0 L267.677,0 C269.02,0 269.992,0.301 270.593,0.901 C271.193,1.502 271.494,2.474 271.494,3.817 L271.494,16.2198 C271.494,17.5626 271.193,18.5344 270.593,19.1351 C269.992,19.7358 269.02,20.0362 267.677,20.0362 L238.418,20.0362 L238.418,28.199 L259.091,28.199 C260.433,28.199 261.405,28.4994 262.006,29.1001 C262.607,29.7009 262.907,30.6726 262.907,32.0154 L262.907,43.3586 C262.907,44.7014 262.607,45.6732 262.006,46.2739 C261.405,46.8746 260.433,47.175 259.091,47.175 L238.418,47.175 L238.418,56.2919 L267.677,56.2919 C269.02,56.2919 269.992,56.5923 270.593,57.193 C271.193,57.7937 271.494,58.7655 271.494,60.1083 L271.494,72.5116 C271.494,73.8544 271.193,74.8262 270.593,75.4269 C269.992,76.0276 269.02,76.328 267.677,76.328 Z" id="Fill-4" fill="#EE4838"></path>
            <path d="M303.615,76.328 L287.819,76.328 C286.477,76.328 285.505,76.0276 284.904,75.4269 C284.303,74.8262 284.003,73.8544 284.003,72.5116 L284.003,3.817 C284.003,2.474 284.303,1.502 284.904,0.901 C285.505,0.301 286.477,0 287.819,0 L304.887,0 C306.018,0 306.954,0.248 307.697,0.742 C308.439,1.237 309.128,2.05 309.764,3.18 L319.305,20.4602 C319.658,21.0963 319.958,21.5557 320.206,21.8384 C320.453,22.1211 320.789,22.2624 321.213,22.2624 L322.167,22.2624 C322.591,22.2624 322.927,22.1211 323.174,21.8384 C323.421,21.5557 323.722,21.0963 324.075,20.4602 L333.51,3.18 C334.146,2.05 334.835,1.237 335.577,0.742 C336.319,0.248 337.256,0 338.387,0 L355.56,0 C356.903,0 357.875,0.301 358.476,0.901 C359.076,1.502 359.377,2.474 359.377,3.817 L359.377,72.5116 C359.377,73.8544 359.076,74.8262 358.476,75.4269 C357.875,76.0276 356.903,76.328 355.56,76.328 L339.235,76.328 C337.892,76.328 336.92,76.0276 336.319,75.4269 C335.719,74.8262 335.418,73.8544 335.418,72.5116 L335.418,35.1958 L329.164,46.7509 C328.528,47.9524 327.768,48.8182 326.885,49.3482 C326.001,49.8783 324.888,50.1433 323.545,50.1433 L319.305,50.1433 C317.962,50.1433 316.849,49.8783 315.965,49.3482 C315.082,48.8182 314.322,47.9524 313.686,46.7509 L307.432,35.1958 L307.432,72.5116 C307.432,73.8544 307.131,74.8262 306.53,75.4269 C305.93,76.0276 304.958,76.328 303.615,76.328 Z" id="Fill-5" fill="#EE4838"></path>
            <polygon id="Fill-6" fill="#2B6B9C" points="23.6073 112.6024 23.6073 100.6704 25.6216 100.6704 25.6216 110.6906 31.067 110.6906 31.067 112.6024"></polygon>
            <path d="M41.8553,102.2238 C40.6718,102.2238 39.6732,102.6448 38.8595,103.487 C38.0458,104.3291 37.639,105.3505 37.639,106.5511 C37.639,107.7517 38.0458,108.773 38.8595,109.6152 C39.6732,110.4573 40.6718,110.8784 41.8553,110.8784 C43.0389,110.8784 44.0375,110.4573 44.8511,109.6152 C45.6648,108.773 46.0717,107.7517 46.0717,106.5511 C46.0717,105.3505 45.6648,104.3291 44.8511,103.487 C44.0375,102.6448 43.0389,102.2238 41.8553,102.2238 Z M41.8553,112.7219 C40.08,112.7219 38.5892,112.133 37.3829,110.9552 C36.1766,109.7773 35.5735,108.3093 35.5735,106.5511 C35.5735,104.7928 36.1766,103.3248 37.3829,102.147 C38.5892,100.9691 40.08,100.3802 41.8553,100.3802 C43.6306,100.3802 45.1214,100.9691 46.3277,102.147 C47.534,103.3248 48.1371,104.7928 48.1371,106.5511 C48.1371,108.3093 47.534,109.7773 46.3277,110.9552 C45.1214,112.133 43.6306,112.7219 41.8553,112.7219 Z" id="Fill-7" fill="#2B6B9C"></path>
            <path d="M62.3566,106.7986 L64.3709,106.7986 L64.3709,110.8784 C63.2442,112.1188 61.634,112.739 59.54,112.739 C57.7761,112.739 56.2995,112.1586 55.1103,110.9978 C53.9211,109.8371 53.3265,108.369 53.3265,106.5937 C53.3265,104.8184 53.9325,103.339 55.1444,102.1555 C56.3564,100.972 57.8216,100.3802 59.54,100.3802 C61.2584,100.3802 62.6866,100.8809 63.8246,101.8824 L62.7492,103.4187 C62.2826,103.0204 61.8132,102.7444 61.3409,102.5908 C60.8686,102.4372 60.3196,102.3603 59.6936,102.3603 C58.4874,102.3603 57.4745,102.7501 56.6552,103.5296 C55.8358,104.3092 55.4261,105.3334 55.4261,106.6023 C55.4261,107.8712 55.8244,108.8897 56.621,109.6578 C57.4176,110.426 58.3821,110.8101 59.5144,110.8101 C60.6467,110.8101 61.5941,110.5654 62.3566,110.0761 L62.3566,106.7986 Z" id="Fill-8" fill="#2B6B9C"></path>
            <path d="M70.4308,100.6704 L72.4451,100.6704 L72.4451,112.6024 L70.4308,112.6024 L70.4308,100.6704 Z M72.2744,99.6803 L70.5332,99.6803 L72.3426,97.2051 L74.3569,98.0416 L72.2744,99.6803 Z" id="Fill-9" fill="#2B6B9C"></path>
            <path d="M81.3386,102.5993 C80.9631,102.8383 80.7753,103.1996 80.7753,103.6833 C80.7753,104.1669 80.9631,104.5368 81.3386,104.7928 C81.7142,105.0489 82.5136,105.3249 83.737,105.6207 C84.9603,105.9166 85.8821,106.332 86.5024,106.8669 C87.1226,107.4017 87.4327,108.1898 87.4327,109.2311 C87.4327,110.2724 87.0401,111.1173 86.2548,111.766 C85.4696,112.4147 84.4397,112.739 83.1651,112.739 C81.2988,112.739 79.643,112.096 78.1977,110.8101 L79.4609,109.2908 C80.6672,110.3378 81.919,110.8613 83.2163,110.8613 C83.865,110.8613 84.38,110.7219 84.7612,110.4431 C85.1424,110.1642 85.333,109.7944 85.333,109.3335 C85.333,108.8726 85.1538,108.5141 84.7953,108.2581 C84.4369,108.002 83.8195,107.7687 82.9432,107.5582 C82.067,107.3477 81.4012,107.1542 80.946,106.9778 C80.4908,106.8014 80.0868,106.571 79.734,106.2865 C79.0285,105.7516 78.6757,104.9322 78.6757,103.8284 C78.6757,102.7245 79.0768,101.8738 79.8791,101.2764 C80.6814,100.6789 81.6743,100.3802 82.8579,100.3802 C83.6203,100.3802 84.3771,100.5054 85.1282,100.7557 C85.8793,101.0061 86.528,101.3589 87.0742,101.8141 L85.9988,103.3333 C85.646,103.0147 85.168,102.7529 84.5649,102.5481 C83.9617,102.3433 83.3671,102.2408 82.7811,102.2408 C82.195,102.2408 81.7142,102.3603 81.3386,102.5993 Z" id="Fill-10" fill="#2B6B9C"></path>
            <polygon id="Fill-11" fill="#2B6B9C" points="97.8455 102.514 97.8455 112.6024 95.8312 112.6024 95.8312 102.514 92.2123 102.514 92.2123 100.6704 101.464 100.6704 101.464 102.514"></polygon>
            <polygon id="Fill-12" fill="#2B6B9C" points="107.063 112.6024 109.0773 112.6024 109.0773 100.6704 107.063 100.6704"></polygon>
            <path d="M121.249,110.7759 C121.943,110.7759 122.54,110.6593 123.041,110.426 C123.542,110.1927 124.065,109.82 124.612,109.3079 L125.909,110.6394 C124.646,112.0391 123.112,112.739 121.308,112.739 C119.505,112.739 118.008,112.1586 116.819,110.9978 C115.63,109.8371 115.035,108.369 115.035,106.5937 C115.035,104.8184 115.641,103.339 116.853,102.1555 C118.065,100.972 119.596,100.3802 121.445,100.3802 C123.294,100.3802 124.839,101.063 126.08,102.4286 L124.799,103.8284 C124.23,103.2821 123.693,102.9009 123.186,102.6847 C122.68,102.4684 122.085,102.3603 121.402,102.3603 C120.196,102.3603 119.183,102.7501 118.364,103.5296 C117.544,104.3092 117.135,105.3049 117.135,106.5169 C117.135,107.7289 117.542,108.7417 118.355,109.5554 C119.169,110.3691 120.133,110.7759 121.249,110.7759 Z" id="Fill-13" fill="#2B6B9C"></path>
            <path d="M133.471,109.8883 L132.276,112.6024 L130.125,112.6024 L135.383,100.6704 L137.534,100.6704 L142.791,112.6024 L140.64,112.6024 L139.445,109.8883 L133.471,109.8883 Z M138.626,108.0276 L136.458,103.1114 L134.29,108.0276 L138.626,108.0276 Z" id="Fill-14" fill="#2B6B9C"></path>
            <polygon id="Fill-15" fill="#2B6B9C" points="164.334 100.6704 164.334 102.5652 157.967 102.5652 157.967 105.7232 163.685 105.7232 163.685 107.5155 157.967 107.5155 157.967 110.7076 164.539 110.7076 164.539 112.6024 155.952 112.6024 155.952 100.6704"></polygon>
            <path d="M172.698,102.5993 C172.323,102.8383 172.135,103.1996 172.135,103.6833 C172.135,104.1669 172.323,104.5368 172.698,104.7928 C173.074,105.0489 173.873,105.3249 175.097,105.6207 C176.32,105.9166 177.242,106.332 177.862,106.8669 C178.482,107.4017 178.792,108.1898 178.792,109.2311 C178.792,110.2724 178.4,111.1173 177.614,111.766 C176.829,112.4147 175.799,112.739 174.525,112.739 C172.658,112.739 171.003,112.096 169.557,110.8101 L170.82,109.2908 C172.027,110.3378 173.279,110.8613 174.576,110.8613 C175.225,110.8613 175.74,110.7219 176.121,110.4431 C176.502,110.1642 176.693,109.7944 176.693,109.3335 C176.693,108.8726 176.513,108.5141 176.155,108.2581 C175.796,108.002 175.179,107.7687 174.303,107.5582 C173.427,107.3477 172.761,107.1542 172.306,106.9778 C171.85,106.8014 171.446,106.571 171.094,106.2865 C170.388,105.7516 170.035,104.9322 170.035,103.8284 C170.035,102.7245 170.436,101.8738 171.239,101.2764 C172.041,100.6789 173.034,100.3802 174.217,100.3802 C174.98,100.3802 175.737,100.5054 176.488,100.7557 C177.239,101.0061 177.888,101.3589 178.434,101.8141 L177.358,103.3333 C177.006,103.0147 176.528,102.7529 175.924,102.5481 C175.321,102.3433 174.727,102.2408 174.141,102.2408 C173.555,102.2408 173.074,102.3603 172.698,102.5993 Z" id="Fill-16" fill="#2B6B9C"></path>
            <path d="M192.756,101.7117 C193.586,102.4059 194.002,103.4756 194.002,104.9209 C194.002,106.3661 193.578,107.4245 192.73,108.0959 C191.882,108.7673 190.582,109.1031 188.829,109.1031 L186.713,109.1031 L186.713,112.6024 L184.699,112.6024 L184.699,100.6704 L188.795,100.6704 C190.605,100.6704 191.925,101.0175 192.756,101.7117 Z M191.33,106.6364 C191.734,106.2097 191.936,105.5838 191.936,104.7587 C191.936,103.9336 191.68,103.3504 191.168,103.009 C190.656,102.6676 189.854,102.4969 188.761,102.4969 L186.713,102.4969 L186.713,107.2765 L189.051,107.2765 C190.167,107.2765 190.926,107.0632 191.33,106.6364 Z" id="Fill-17" fill="#2B6B9C"></path>
            <polygon id="Fill-18" fill="#2B6B9C" points="208.17 100.6704 208.17 102.5652 201.803 102.5652 201.803 105.7232 207.521 105.7232 207.521 107.5155 201.803 107.5155 201.803 110.7076 208.375 110.7076 208.375 112.6024 199.789 112.6024 199.789 100.6704"></polygon>
            <path d="M219.812,110.7759 C220.506,110.7759 221.103,110.6593 221.604,110.426 C222.105,110.1927 222.628,109.82 223.175,109.3079 L224.472,110.6394 C223.209,112.0391 221.675,112.739 219.872,112.739 C218.068,112.739 216.571,112.1586 215.382,110.9978 C214.193,109.8371 213.598,108.369 213.598,106.5937 C213.598,104.8184 214.204,103.339 215.416,102.1555 C216.628,100.972 218.159,100.3802 220.008,100.3802 C221.857,100.3802 223.402,101.063 224.643,102.4286 L223.362,103.8284 C222.793,103.2821 222.256,102.9009 221.749,102.6847 C221.243,102.4684 220.648,102.3603 219.965,102.3603 C218.759,102.3603 217.746,102.7501 216.927,103.5296 C216.108,104.3092 215.698,105.3049 215.698,106.5169 C215.698,107.7289 216.105,108.7417 216.918,109.5554 C217.732,110.3691 218.697,110.7759 219.812,110.7759 Z" id="Fill-19" fill="#2B6B9C"></path>
            <polygon id="Fill-20" fill="#2B6B9C" points="230.344 112.6024 232.3583 112.6024 232.3583 100.6704 230.344 100.6704"></polygon>
            <path d="M240.774,109.8883 L239.579,112.6024 L237.428,112.6024 L242.686,100.6704 L244.837,100.6704 L250.094,112.6024 L247.943,112.6024 L246.749,109.8883 L240.774,109.8883 Z M245.929,108.0276 L243.761,103.1114 L241.593,108.0276 L245.929,108.0276 Z" id="Fill-21" fill="#2B6B9C"></path>
            <polygon id="Fill-22" fill="#2B6B9C" points="255.164 112.6024 255.164 100.6704 257.178 100.6704 257.178 110.6906 262.624 110.6906 262.624 112.6024"></polygon>
            <polygon id="Fill-23" fill="#2B6B9C" points="268.24 112.6024 270.2543 112.6024 270.2543 100.6704 268.24 100.6704"></polygon>
            <polygon id="Fill-24" fill="#2B6B9C" points="283.074 102.514 276.348 102.514 276.348 100.6704 285.873 100.6704 285.873 102.2408 278.943 110.6906 278.943 110.7418 285.976 110.7418 285.976 112.6024 276.126 112.6024 276.126 111.0491 283.074 102.5652"></polygon>
            <path d="M293.606,109.8883 L292.411,112.6024 L290.26,112.6024 L295.518,100.6704 L297.669,100.6704 L302.927,112.6024 L300.776,112.6024 L299.581,109.8883 L293.606,109.8883 Z M298.761,108.0276 L296.593,103.1114 L294.426,108.0276 L298.761,108.0276 Z" id="Fill-25" fill="#2B6B9C"></path>
            <path d="M317.026,102.2323 C318.176,103.2736 318.751,104.7217 318.751,106.5767 C318.751,108.4316 318.193,109.8997 317.078,110.9808 C315.962,112.0619 314.255,112.6024 311.957,112.6024 L307.996,112.6024 L307.996,100.6704 L312.093,100.6704 C314.233,100.6704 315.877,101.191 317.026,102.2323 Z M316.719,106.6279 C316.719,103.8967 315.154,102.531 312.025,102.531 L310.011,102.531 L310.011,110.7076 L312.247,110.7076 C313.692,110.7076 314.799,110.3634 315.567,109.6749 C316.335,108.9864 316.719,107.9707 316.719,106.6279 Z" id="Fill-26" fill="#2B6B9C"></path>
            <path d="M326.449,109.8883 L325.254,112.6024 L323.103,112.6024 L328.361,100.6704 L330.512,100.6704 L335.77,112.6024 L333.619,112.6024 L332.424,109.8883 L326.449,109.8883 Z M331.604,108.0276 L329.436,103.1114 L327.269,108.0276 L331.604,108.0276 Z" id="Fill-27" fill="#2B6B9C"></path>
            <path d="M359.377,86.7666 C359.377,86.1264 358.857,85.6067 358.217,85.6067 L1.1598,85.6067 C0.5197,85.6067 0,86.1264 0,86.7666 L0,89.0862 C0,89.7264 0.5197,90.2461 1.1598,90.2461 L358.217,90.2461 C358.857,90.2461 359.377,89.7264 359.377,89.0862 L359.377,86.7666 Z" id="Fill-28" fill="#2B6B9C"></path>
        </g>
    </g>
</svg>